<?xml version="1.0" encoding="utf-8"?>
<!-- Generator: Adobe Illustrator 24.1.2, SVG Export Plug-In . SVG Version: 6.00 Build 0)  -->
<svg version="1.1" id="Layer_1" xmlns="http://www.w3.org/2000/svg" xmlns:xlink="http://www.w3.org/1999/xlink" x="0px" y="0px"
	 viewBox="0 0 180.1 130.9" style="enable-background:new 0 0 180.1 130.9;" xml:space="preserve">
<style type="text/css">
	.st0{fill:#EBE3FF;}
	.st1{opacity:0.74;fill:#FFFFFF;enable-background:new    ;}
	.st2{fill:#FFFFFF;}
	.st3{fill:none;stroke:#5700FF;stroke-width:1.78;stroke-linecap:round;stroke-linejoin:round;}
	.st4{display:none;fill:#EBE3FF;}
	.st5{display:none;fill:none;stroke:#5700FF;stroke-width:1.39;stroke-linecap:round;stroke-linejoin:round;}
	.st6{display:none;fill:#5700FF;enable-background:new    ;}
	.st7{font-family:'SofiaPro-Bold';}
	.st8{font-size:25.1px;}
</style>
<g id="Layer_2_1_">
	<g id="Layer_1-2">
		<path class="st0" d="M91.8,104.3c-4.4,2.3-9.3,3.5-14.3,3.5H31.8c-7.2,0-31.8,1.2-31.8,5.6s15.9,4,20.4,4s21.9-1.2,27.7-1.2
			s22.4-0.9,28-0.9s17.9-6.2,17.9-6.2L91.8,104.3z"/>
		<path class="st0" d="M164.8,83c2.3-4.1-11-5-16.2-4s-31,0.4-36.5,2.5s-10.3,6.3-8.9,8.7s3.3-0.7,8.9-2.2
			c10.2-2.7,24.5,2.2,37.9,0.5C157,87.7,162.4,87.1,164.8,83z"/>
		<path class="st0" d="M180.1,124.6c0-5.9-54.2-15.7-68.9-16s-24.2-1.4-22.8,2.8s48.2,18.1,64.2,19.2S180.1,130.5,180.1,124.6z"/>
		<path class="st0" d="M22.5,78.2c7.6,0.9,16-1.2,22.4-1.2s36.4-1.7,41.8,4.7c0,0,5.5-0.4,6.1-2.5s-52.2-5.1-64.3-5.9
			S15,77.2,22.5,78.2z"/>
		<path class="st1" d="M172.4,110.8c0-0.6,0-1.1,0-1.5c0.1-2.4-2.5-5.4-2.8-5.8l0,0l0,0c-0.3-0.5-2.4-3-8.8-3.3c-0.4,0-0.8,0-1.2,0
			c-2-0.1-3.9,0.3-5.7,1.2l-0.4,0.2l-0.3-0.2c-3-2.2-6.6-3.3-10.3-3.2h-0.8c-1.1,0-2.2,0.3-3.1,0.8l-0.4,0.2l-0.4-0.3
			c-1-1-3.4-2.7-7.7-2.7c-0.3,0-0.6,0-1,0c-1.1,0-2.2,0.3-3.1,0.8l-0.4,0.2l-0.3-0.2c-2.1-1.4-4.5-2.2-7-2.3c-0.4,0-0.8,0-1.2,0.1
			c-0.6,0.1-1.2,0.2-1.8,0.4l-0.3,0.1l-0.3-0.2c-2-1.3-4.4-1.9-6.8-1.9H108l-1.2-0.1l-0.1-0.6c-0.1-1.2-0.1-4.2,1.4-5.9
			s4.4-1.4,7.8-1.4c2,0,4,0.2,6,0.7c3.3,0.5,6.6,0.8,9.9,0.7c7.8,0,16.7-0.9,21-2.2s7-4.8,6.6-9c-0.2-2.3-3.1-5.8-7-7.4
			c-1.3-0.5-2.7-0.8-4.1-0.8c-2.6,0-5.1,1-7.1,2.6l-0.4,0.3l-0.4-0.3c-2.1-1.4-4.6-2.2-7.1-2.2h-0.5c-1.7,0-3.4,0.6-4.7,1.7
			l-0.4,0.3l-0.4-0.3c-1.2-0.8-2.6-1.2-4-1.4c-0.3,0-0.7,0-1,0c-2,0-3.9,0.7-5.3,2.1l-0.4,0.4l-0.4-0.3c-1.3-0.9-2.7-1.4-4.2-1.5
			c-0.3,0-0.5,0-0.8,0c-1.9-0.1-3.8,0.7-5.2,2l-0.4,0.4l-0.5-0.3c-0.8-0.6-1.8-0.9-2.8-0.9h-0.2c-2,0.1-3.7,1.2-4.7,2.9l-0.2,0.5
			L96.9,73c-0.4-0.1-0.7-0.1-1.1-0.2h-0.5c-1.7,0.2-2.8,1.5-3.8,3.6l0,0h0.2V77h-0.5h-0.3c-0.3,0-1.2,0.1-1.4,0.1
			c-2.4,0.6-3.8,3.2-3.8,7.1v0.2c0,7.7,1.5,14.8,6.4,21.2c4.7,6,12.2,7.4,20,8.9h0.3l0.7,0.1c3.5,0.6,6.9,1.4,10.2,2.5
			c12.6,4.3,25.4,6.9,34.1,6.9c5.8,0,10-1.1,12-3.3C172.7,117.3,172.5,113.2,172.4,110.8z"/>
		<path class="st2" d="M108.3,62.6c-2.8-8.2-6.2-10.2-6.2-10.2H102c-3.8-6.6-24.2-3.7-41.7-0.8c-15.8,2.7-25.4,4.5-30.2,9.1
			C24.6,66,25,69,25,69.5c0.3,1.7,0.8,3.3,1.6,4.8c0,0,1.5,4.2,8.3,2.6c4.3-1,5.1-3.1,5.1-3.1c1.9,1.7,4.6,2.3,7,1.5
			c4.1-1.3,5.1-4,5.1-4s1.8,1.7,6,1.2s5.8-4.7,5.8-4.7s4.1,1.8,7.3,0.7c5-1.7,6-4.4,6-4.4c0.9,1.8,3,2.6,4.8,1.8
			c5-1.4,5.3-3.1,5.3-3.1c0.1,0.9-1.4,3.6-5,5.6c-11.6,6.5-39.2,15.7-50.4,16.4c-14.7,0.9-21.2,7.9-22.5,12.5
			c-0.8,2.8-0.3,4,0.9,4.3l1.2,5.5c0,3.1,2.5,5.7,5.6,5.9c5.7,0.6,7.7-3.4,7.7-3.4c2.3,1.1,4.9,1.4,7.3,0.7c2.7-0.8,5.1-2.5,6.8-4.8
			c0,0,3.5,2.5,7.2,1.6c2.3-0.7,4.3-2.1,5.6-4.1c2.2,0.1,4.5-0.4,6.4-1.6c1.7-1.1,3.1-2.5,4.4-4.1c0,0,5.7,0.9,8-0.4
			c1.8-1.1,3.6-2.5,5.2-3.9c2.6,0.5,5.3,0.3,7.8-0.8c2.1-1,3.7-2.9,4.2-5.3c0,0,6.8,2.2,10.4-0.1s4.1-7.3,4.1-7.3s4.4,0.5,6.4-1.5
			s1.9-4.7,2-6C110,68.8,109.3,65.7,108.3,62.6z"/>
		<path class="st3" d="M140.7,70.3c8.9-7.6,18.1,1,18.5,4.9s-1.9,7.3-6.4,8.6c-6.4,1.8-23.1,2.9-31.2,1.5c-16-2.8-15.2,4.6-15.2,4.6
			"/>
		<path class="st3" d="M172.4,109.3c0,0,1,7.3-2.9,11.4s-19.2,5.4-46.3-3.8c-11.1-3.8-23.7-2.7-30.7-11.5c-3.5-4.5-5.8-9.9-6.5-15.6
			"/>
		<path class="st3" d="M97.7,86.9c0.2,0.2,0.3,0.4,0.5,0.7"/>
		<path class="st3" d="M89.3,89.9c-0.2-0.7-0.2-1.4-0.2-2.1"/>
		<path class="st3" d="M94.3,97.2c0,0-2.1-6.9,4.4-7.3c4.7-0.3,7.8,3.7,7.8,3.7"/>
		<path class="st3" d="M102.3,99.9c0,0-2.1-6.2,5-6.4c2.7-0.2,5.4,0.6,7.7,2.1"/>
		<path class="st3" d="M112.4,102c0,0-2.3-6.1,4.8-6.9c3.1-0.3,6.1,0.6,8.6,2.5"/>
		<path class="st3" d="M123.8,104c0,0-1.6-7.1,5.5-7.5c6.7-0.4,9.1,3.2,9.1,3.2"/>
		<path class="st3" d="M136.6,106c0,0-1.6-7.2,5.5-7.5c7.3-0.3,11.4,3.4,11.4,3.4"/>
		<path class="st3" d="M151.3,107c0,0-1.1-7,9.6-6.5c6.9,0.4,8.7,3.2,8.7,3.2"/>
		<path class="st3" d="M109.7,68.8c3.9-0.4,7.7,1.7,9.2,5.3"/>
		<path class="st3" d="M116.3,70.7c4-4.6,11.3-2.8,14.2,2.6"/>
		<path class="st3" d="M127.6,70c2.4-3.3,10.4-3.3,15.5,2.6"/>
		<path class="st3" d="M39.4,69.7c0,0,0.1,0.1,0.2,0.2h-0.1c0,0,0,0-0.1,0S39.4,69.7,39.4,69.7L39.4,69.7z M63.1,63.7
			C63.1,63.7,63.2,63.7,63.1,63.7L63.1,63.7L63.1,63.7C63,63.7,63,63.7,63.1,63.7L63.1,63.7z"/>
		<path class="st3" d="M25.2,67.9c0-13.8,55.8-20.2,65.1-20.2c8.2,0,12.6,2.2,12.6,4.8c0,13.2-37.1,31.8-68.2,37.3
			c-10.4,1.8-19.2,11.5-23.8,11.5c-1.4,0-2-1-2-2.9c0-11.3,18.8-14.2,21.8-14.2c12.5,0,56.4-14.1,56.4-22.3c0-7.8-23.9-4.4-41.2,0.7
			C41.1,64,33.2,71,28.6,71C26.5,71.2,25.2,70.4,25.2,67.9z"/>
		<path class="st3" d="M10.9,108c0,0,3.6,6.5,9.3,5.2s4.5-10,4.5-10"/>
		<path class="st3" d="M24.7,109.9c0,0,8.4,3.8,12.9-3.3c3.2-5.1-0.6-12.1-0.6-12.1"/>
		<path class="st3" d="M38.6,105.8c0,0,9,3.2,12.2-2.6c2-3.8-0.7-8.8-0.7-8.8"/>
		<path class="st3" d="M51.9,103.2c0,0,7.8,1.1,10.3-5.3c1.4-3.7-1.7-7.3-1.7-7.3"/>
		<path class="st3" d="M62.2,97.8c0,0,11,1.2,13.2-5.7c0.9-2.6,0.2-5.4-1.8-7.3"/>
		<path class="st3" d="M74.9,93.3c0,0,11.3,2,12-5.6c0.3-3.5-0.5-6.9-2.4-9.9"/>
		<path class="st3" d="M87,87.1c0,0,10,2.8,14-2.8c2.9-4.2-2.2-16.2-2.2-16.2"/>
		<path class="st3" d="M102.2,79.9c0,0,6.2,1.3,7.7-4.8c1.4-5.3-4.4-18.8-4.4-18.8"/>
		<path class="st3" d="M26.4,73c0.8,2.1,2.8,3.5,5,3.7c6.2,0.5,8.8-3.3,8.8-3.3"/>
		<path class="st3" d="M39.4,69.7c0,0,0.2,4.5,3.7,5.6c4.4,1.4,9.6-4,9.6-4"/>
		<path class="st3" d="M51.2,67c-0.1,2.6,2,4.9,4.6,5.1c5.9,0.7,8.6-5.1,8.6-5.1"/>
		<path class="st3" d="M63,63.2c0,0,0,4.2,3.6,4.9c6.8,1.3,10.8-4.6,10.8-4.6s1.8,2.7,4.8,1.9"/>
		<path class="st4" d="M121.8,46.4V8.3c0-4.2,3.4-7.6,7.6-7.6h34.4c4.2,0,7.6,3.4,7.6,7.6v24.2c0,4.2-3.4,7.6-7.6,7.6h-31.5
			C127.8,40.1,123.8,42.5,121.8,46.4z"/>
		<path class="st5" d="M121.8,46.4V8.3c0-4.2,3.4-7.6,7.6-7.6h34.4c4.2,0,7.6,3.4,7.6,7.6v24.2c0,4.2-3.4,7.6-7.6,7.6h-31.5
			C127.8,40.1,123.8,42.5,121.8,46.4z"/>
		<text transform="matrix(1 0 0 1 140 26.88)" class="st6 st7 st8">?</text>
	</g>
</g>
</svg>
